PathFileType	4	(X/Y/Z)	/Users/visionmauri/1_5_1_f_1_Sports2D/1_5_1_f_1_Sports2D_px_person00.trc
DataRate	CameraRate	NumFrames	NumMarkers	Units	OrigDataRate	OrigDataStartFrame	OrigNumFrames
30.0	30.0	13	22	m	30.0	54	432
Frame#	Time	Hip			RHip			RKnee			RAnkle			RBigToe			RSmallToe			RHeel			LHip			LKnee			LAnkle			LBigToe			LSmallToe			LHeel			Neck			Head			Nose			RShoulder			RElbow			RWrist			LShoulder			LElbow			LWrist			
		X1	Y1	Z1	X2	Y2	Z2	X3	Y3	Z3	X4	Y4	Z4	X5	Y5	Z5	X6	Y6	Z6	X7	Y7	Z7	X8	Y8	Z8	X9	Y9	Z9	X10	Y10	Z10	X11	Y11	Z11	X12	Y12	Z12	X13	Y13	Z13	X14	Y14	Z14	X15	Y15	Z15	X16	Y16	Z16	X17	Y17	Z17	X18	Y18	Z18	X19	Y19	Z19	X20	Y20	Z20	X21	Y21	Z21	X22	Y22	Z22
54	1.8041763341067287	579.6541397761955	852.6947883869103	0.0	652.693024356844	867.0728903730845	0.0	640.5079067098274	1131.2004441864062	0.0	613.54395630936	1385.751861555237	0.0	597.2030063364411	1405.9948040022534	0.0	643.667657449322	1420.4275991078398	0.0	603.4075057891145	1427.9803192726388	0.0	510.53392311462954	866.1533263521743	0.0	518.290311144124	1104.3325463064352	0.0	514.1643279924273	1151.751605125432	0.0	524.5690734584576	1320.7626549660515	0.0	484.0594155106671	1212.53752008033	0.0	519.1723496331425	1151.939622247156	0.0	577.2277822047831	480.7852175423287	0.0	585.3292384658292	362.29391772489373	0.0	586.6189657782153	434.1209958348273	0.0	702.9483745023896	516.435975624097	0.0	758.639082518772	687.5032077308784	0.0	789.63556405134	847.1982189836945	0.0	449.90614913482455	520.8709396686249	0.0	386.2237496038676	713.0578661011991	0.0	396.7522096605606	726.931056383787	0.0
55	1.837587006960557	581.2841638643067	849.7631695098935	0.0	653.6304823750099	868.9595047434048	0.0	640.3872452488789	1132.1783473645305	0.0	613.1315487715133	1386.3615237939252	0.0	595.1485110286499	1410.6816752138418	0.0	643.008533666777	1424.1151719567981	0.0	603.2879239891814	1429.182149207257	0.0	512.3731026939103	864.7759635186992	0.0	519.5336258705348	1094.3046053134326	0.0	515.3113427074884	1148.1592924289664	0.0	525.3249791982	1271.1891567212479	0.0	486.3492414479357	1207.9878196772518	0.0	521.5371904743077	1149.9094628463265	0.0	580.7152498594558	480.8772734237245	0.0	587.5140270021197	363.9862384089902	0.0	589.2876607576051	434.99217244421504	0.0	704.9796396604445	516.3534927996112	0.0	762.1017295683473	685.4946044897508	0.0	789.8062492408745	846.8072062663135	0.0	455.795108142455	521.2110615306466	0.0	390.20272461994267	712.5706606811631	0.0	400.559788645642	722.3485505963434	0.0
56	1.8709976798143853	582.5698923940635	845.1679250203567	0.0	654.8413619886794	866.1809216766684	0.0	641.3975087332286	1131.8164999795918	0.0	613.2004185773419	1387.5313677995657	0.0	591.8877308051108	1414.6915994366914	0.0	642.1244127068584	1426.4201399114427	0.0	603.423554540017	1431.2773111845088	0.0	513.882019755817	860.3471722537772	0.0	520.7951461676201	1085.1490153014217	0.0	515.6916024617202	1136.3776059850993	0.0	524.8904403870335	1223.9292707310672	0.0	485.54192807448504	1204.2329995249963	0.0	522.6071046388555	1138.1513397649987	0.0	583.7122445061595	482.1150940413219	0.0	589.4943944736998	364.6939406302447	0.0	591.8988277197684	436.78865526171296	0.0	706.0145013933572	516.216265628212	0.0	766.2479214599896	685.062606129312	0.0	790.0410712264559	847.3398589605821	0.0	461.19463217395133	521.8326317907704	0.0	394.42136710239026	710.5176163008003	0.0	404.4683589395748	718.229851953222	0.0
57	1.9044083526682136	583.7233264187181	841.7004996935709	0.0	655.5835704062799	860.8504200038129	0.0	643.721790375276	1131.7032340012786	0.0	613.6546183467891	1387.6029669767784	0.0	588.0545165121576	1417.7159123318977	0.0	641.1815843127638	1429.362262818555	0.0	603.9120196714746	1431.5933830252059	0.0	515.7171575624704	854.4384209476057	0.0	521.9666420781407	1081.1641650015417	0.0	516.9238291573057	1123.199521749088	0.0	522.9609880797373	1215.713069496801	0.0	484.59751366088955	1215.6796319262376	0.0	523.5665601985568	1122.7429699869672	0.0	586.0082055765769	483.7266400489499	0.0	590.6585388845878	364.94129509883686	0.0	592.9920491535826	437.00818124950456	0.0	708.1563836602618	515.8790200838475	0.0	768.0777642089514	684.6823875002045	0.0	789.957960634215	847.5519650778238	0.0	464.5218949630511	522.0770579428241	0.0	397.5924258714981	708.4896244023128	0.0	409.67530876138267	715.1919302270346	0.0
58	1.937819025522042	585.5119662646363	841.2802225103756	0.0	656.4985890859949	856.8320452305941	0.0	646.2651687316468	1132.2127544312914	0.0	614.0411671455735	1387.2266843281943	0.0	586.108630413317	1419.7691322877472	0.0	640.7545013141463	1433.4999638163001	0.0	604.4677409005033	1430.1042442058854	0.0	518.3010391803523	850.2840289999053	0.0	522.6923807611147	1081.9789369614725	0.0	517.7222508754246	1136.6761405193831	0.0	517.5637469634815	1278.0226482720605	0.0	483.6355287613417	1279.1952584472783	0.0	523.7660988420307	1137.95696086752	0.0	587.9341592601731	485.0403151674294	0.0	591.3610931541357	365.376013024783	0.0	593.4078245789489	436.6248074870394	0.0	710.6452793909006	515.7327571527969	0.0	768.371022233145	682.9215452230233	0.0	789.8723532819795	847.0414081293281	0.0	466.3075304409017	521.1755649876711	0.0	400.43753565578993	707.9544035405899	0.0	418.50817315018304	712.880337228354	0.0
59	1.9712296983758701	587.9726378241274	842.6451498659545	0.0	658.6221444739028	855.0128361589657	0.0	647.4112682047629	1132.0949617480392	0.0	613.7743077975204	1388.2213321671725	0.0	586.965090446405	1420.1268490853272	0.0	640.8679157236653	1435.3684589548864	0.0	604.7879028718536	1428.8253104053233	0.0	521.4260619785446	849.0688214740319	0.0	522.5890700750774	1083.787624398424	0.0	515.9980059834974	1206.555446504184	0.0	508.99927188429734	1385.731685016181	0.0	479.5789842248429	1383.7067863438701	0.0	521.3380057454823	1221.3933828140168	0.0	590.18395728996	485.76527296941094	0.0	592.104857207765	366.5738593753823	0.0	594.7590823047427	437.88484564178725	0.0	711.837047347656	516.251117651904	0.0	769.8843472052714	680.2215827472502	0.0	791.1494715554753	846.7917560073566	0.0	469.15745768712014	519.7048427742626	0.0	404.8008634984663	708.5667604594472	0.0	430.42440086068683	709.9185887763917	0.0
60	2.0046403712296987	590.1191347145927	842.8165308911456	0.0	661.3106387189475	854.1783694988952	0.0	646.6838128303364	1131.3085082853775	0.0	612.8384423214875	1389.5598646746735	0.0	588.3506359106932	1418.1185733392679	0.0	640.559308436045	1431.858094195486	0.0	604.9096338737917	1428.1224003056861	0.0	524.5121633981005	849.4216884357928	0.0	521.8375156579339	1083.6591795569273	0.0	512.8339873058477	1308.071704803493	0.0	502.3560162242405	1464.0350848032822	0.0	473.26405019799864	1459.734201503453	0.0	517.1482513906366	1342.519410419545	0.0	592.6128870852684	485.9304731056814	0.0	592.784391948793	368.5059246420305	0.0	596.771154079686	439.65329415893865	0.0	712.2844245547757	516.8262371267039	0.0	772.7273138517442	677.7324922796679	0.0	793.7599878046408	847.2093306345766	0.0	473.7995609444227	518.6879359770024	0.0	410.0400153654117	709.2466968735486	0.0	439.93907690452824	705.6362882861243	0.0
61	2.038051044083527	591.3105589984004	840.6455098298326	0.0	662.8063476887025	853.638201310525	0.0	645.2023029180946	1130.336407663773	0.0	611.9321511775861	1389.049262257931	0.0	587.75020238936	1415.5857509975262	0.0	638.9778007781194	1425.3207879207303	0.0	604.9559882181269	1427.3890936832568	0.0	526.6706106137444	849.6487849648904	0.0	521.1960384061085	1082.2479693701214	0.0	510.52847090167546	1376.1076495502064	0.0	500.6340310550981	1479.848908281072	0.0	469.1385428693928	1474.0417630097513	0.0	514.0797035946443	1422.7987241143321	0.0	594.3262190116585	485.8254951354104	0.0	593.380489640611	370.2479900988302	0.0	598.3943510133987	439.49620901696716	0.0	713.0645950026826	516.2211705132495	0.0	775.1387628584255	675.1311518662252	0.0	795.7247974900948	847.1940956626058	0.0	478.16946978003415	517.9695246356879	0.0	413.9272773380572	708.7026523883304	0.0	443.64827086072887	700.6008140804928	0.0
62	2.071461716937355	592.1512939706951	838.0633154065072	0.0	662.659332639706	853.5100812719686	0.0	644.3942732973579	1128.6813748016823	0.0	611.8172312335901	1387.4026385026127	0.0	585.6705294238357	1415.9780951343594	0.0	637.0737393151936	1422.2826616367483	0.0	604.9072744686007	1426.8426846911593	0.0	527.514635187999	849.2106575968703	0.0	520.7357681739455	1082.7015099261635	0.0	509.2111625722456	1391.5784772223865	0.0	501.67550670039316	1469.2055814978	0.0	468.39894532346466	1462.948734410155	0.0	512.891788413139	1442.2289575931525	0.0	595.7003912688925	485.5513799007493	0.0	594.017647679213	371.1169477573995	0.0	599.6182037802189	438.5917098162083	0.0	714.2381821612613	514.7095349130303	0.0	777.1404111916582	671.9371077168224	0.0	796.519684502057	845.7860809921801	0.0	480.73331843728766	517.0892829419613	0.0	416.3542015316042	705.869385773804	0.0	444.72904009425537	697.2174781085581	0.0
63	2.1048723897911836	593.4868412824453	837.1482387803912	0.0	662.0806930321894	853.7871369503107	0.0	644.4284261538962	1126.4950072807314	0.0	612.7452697339929	1387.0145297849533	0.0	584.3736325632049	1419.4439439181137	0.0	636.3565654237693	1425.1749679660275	0.0	604.733003051325	1426.8638359072115	0.0	527.8594867003292	848.8973457968037	0.0	519.5044185941975	1083.7774738422027	0.0	507.9949192691456	1386.1378041157598	0.0	503.01444773332736	1465.040617369166	0.0	469.3505844510384	1460.445261295557	0.0	512.0541812761992	1438.1526955891063	0.0	598.0586698309082	484.9279975640101	0.0	594.635427703478	371.74294136208187	0.0	600.6830903628909	439.8248588931902	0.0	716.1917789408545	514.066646196106	0.0	779.9204389834099	669.9512670551404	0.0	797.3327746770392	843.1186292662525	0.0	482.36228599356247	516.3220407406172	0.0	418.58762530877874	701.7537795053206	0.0	446.4746199958817	698.0689094145398	0.0
64	2.138283062645012	594.9410957248036	837.6489800095447	0.0	661.9714984858459	853.7902684954017	0.0	644.6071504067274	1125.897352650223	0.0	614.1080565994743	1387.6121002226191	0.0	584.3350455931943	1422.0803062533935	0.0	636.3349201481674	1429.2699041696776	0.0	604.8274560754224	1426.8827822451094	0.0	528.5147456887775	849.3146080667835	0.0	517.07540498539	1077.7858130472787	0.0	506.9911166760527	1374.1780043831554	0.0	503.9976877169182	1462.6836491975212	0.0	471.05175224785324	1460.6389827882567	0.0	510.3326414843673	1422.838381258365	0.0	600.8403868052546	483.9629562407498	0.0	595.5609509172133	373.39699367431103	0.0	601.3577545980656	442.3100372129902	0.0	719.2393126914342	514.5772343711435	0.0	783.0430298879747	670.2070183592709	0.0	797.710063618975	839.864596188764	0.0	484.46290306193544	515.9157828284759	0.0	420.6092872339542	699.2965285676286	0.0	447.62658192736717	701.7783688984082	0.0
65	2.17169373549884	595.5820766359242	837.9318827074289	0.0	662.069434861686	852.5660096154351	0.0	644.4924553633828	1128.7462148895638	0.0	614.9211145590991	1386.9700657604255	0.0	584.1407283075597	1422.0388236859085	0.0	635.732999295213	1430.8792998610772	0.0	605.751463259129	1425.8628807099653	0.0	529.0001006518738	849.5383406125659	0.0	514.4616374863451	1063.6922580192024	0.0	506.3361413021303	1339.2070410735018	0.0	504.3600169212748	1450.7559882897897	0.0	472.8432493175042	1449.4921526400935	0.0	508.52239509616356	1377.8500070170548	0.0	602.177338582751	483.4007903714823	0.0	597.0304003837158	375.81350821990424	0.0	601.5704878280228	442.86067365010365	0.0	722.1425225612933	514.7288909631769	0.0	785.3233806342137	671.084277931679	0.0	796.0425450927463	837.6688158593297	0.0	486.809809278182	516.0479727191876	0.0	422.0690161505131	699.6460852378505	0.0	446.8775855679034	704.5746596666816	0.0
66	2.2051044083526685	595.4897740394102	837.2537033881816	0.0	662.1168414161547	850.5488885948542	0.0	644.1642160890328	1133.178707857166	0.0	614.9731122607168	1385.239788916168	0.0	583.3652577043977	1421.6615620238153	0.0	634.4386791851197	1431.567208678265	0.0	607.2039593259613	1423.9185887403335	0.0	528.7981764044554	849.0891449777542	0.0	512.9753372719383	1051.9842118499337	0.0	505.66253978181606	1281.692119513705	0.0	504.391049128968	1434.788560119499	0.0	474.6814012648724	1432.1977206855886	0.0	508.9825450306368	1311.0601108249898	0.0	602.0698786632947	483.97168232308076	0.0	598.2884352730218	377.3520246983853	0.0	601.6721084234356	441.61479475825223	0.0	723.575262202746	514.526390909652	0.0	786.6896297761228	672.4670719508978	0.0	792.8684137748464	837.8627342740207	0.0	488.32897112128387	516.8878559003367	0.0	423.61606472877816	701.2901782982298	0.0	446.3779120464718	705.0352409257434	0.0
